<svg xmlns="http://www.w3.org/2000/svg" version="1.0" width="170.000000pt" height="170.000000pt" viewBox="0 0 170.000000 170.000000" preserveAspectRatio="xMidYMid meet">

<rect xmlns="http://www.w3.org/2000/svg" width="100%" height="100%" fill="#755287"/>
<g xmlns="http://www.w3.org/2000/svg" transform="translate(0.000000,170.000000) scale(0.100000,-0.100000)" fill="#baa8c3" stroke="none">
<path d="M220 1151 c0 -28 2 -30 48 -33 l47 -3 3 -257 2 -258 45 0 45 0 0 260 0 260 45 0 c43 0 45 1 45 30 l0 30 -140 0 -140 0 0 -29z"/>
<path d="M620 1178 c0 -2 -24 -133 -53 -291 l-53 -288 45 3 c32 2 46 8 48 18 12 92 10 90 62 90 52 0 61 -9 61 -55 0 -46 10 -55 57 -55 38 0 44 3 39 18 -3 9 -26 132 -51 272 -25 140 -48 263 -51 273 -4 13 -16 17 -55 17 -27 0 -49 -1 -49 -2z m84 -350 l7 -58 -40 0 c-23 0 -41 2 -41 5 0 14 32 224 37 245 6 25 18 -38 37 -192z"/>
<path d="M887 1173 c-4 -3 -7 -134 -7 -290 l0 -283 45 0 45 0 0 111 c0 97 2 110 16 107 11 -2 30 -39 54 -108 l37 -105 47 -3 c25 -2 46 -1 46 1 0 2 -20 55 -45 117 -43 108 -44 114 -26 126 33 24 51 77 51 156 0 134 -44 178 -181 178 -42 0 -79 -3 -82 -7z m151 -70 c22 -19 26 -43 24 -130 -2 -60 -26 -93 -67 -93 l-25 0 0 120 c0 120 0 120 24 120 13 0 33 -8 44 -17z"/>
<path d="M1272 1165 c-52 -38 -66 -118 -33 -190 10 -22 41 -68 69 -102 69 -82 92 -122 92 -159 0 -37 -16 -54 -51 -54 -35 0 -46 15 -54 73 -7 45 -8 47 -41 47 l-34 0 0 -56 c0 -66 10 -89 50 -109 39 -20 125 -19 161 2 31 18 59 77 59 121 -1 43 -32 100 -108 197 -39 50 -74 102 -77 117 -9 39 10 68 45 68 34 0 46 -18 56 -79 6 -39 8 -41 40 -41 l34 0 0 59 c0 49 -5 65 -24 88 -21 24 -32 28 -92 31 -52 2 -75 -1 -92 -13z"/>
</g>
</svg>